<?xml version="1.0" encoding="utf-8"?>
<!-- Generator: Adobe Illustrator 22.0.0, SVG Export Plug-In . SVG Version: 6.00 Build 0)  -->
<svg version="1.1" id="Layer_1" xmlns="http://www.w3.org/2000/svg" xmlns:xlink="http://www.w3.org/1999/xlink" x="0px" y="0px"
	 viewBox="0 0 153.5 88.9" style="enable-background:new 0 0 153.5 88.9;" xml:space="preserve">
<style type="text/css">
	.st0{fill:none;stroke:#000000;stroke-width:0.3789;stroke-miterlimit:10;}
</style>
<g>
	<g>
		<path d="M42.2,17.7c-1,0.9-1.8,1.7-2.5,2.3c-3.3,2.8-6.5,5.8-10,8.4c-2.1,1.6-4.7,2.5-7.2,3.6c-0.7,0.3-1.7,0.3-2.5,0.3
			c-2-0.1-3.4-1.2-3.5-3.2c-0.1-1.7,0-3.4,0.5-5c2-6.9,5.9-12.6,11.6-17c1.7-1.3,3.9-2.3,6.1-2.9c3.1-0.9,6.7,1.1,8.2,4
			c0.4,0.9,0.5,1.8-0.3,2.5c-0.8,0.6-1.5,0.1-2.1-0.5c0,0-0.1-0.1-0.1-0.1c-4.3-3.8-6.8-3.8-10.8,0.3c-4.2,4.3-7.1,9.5-9.2,15.2
			c-0.4,1-0.9,2.3,0.1,3.2c1.1,0.9,2.3,0.2,3.2-0.4c3.1-2.2,6.3-4.4,9.3-6.8c3.2-2.6,6.1-5.4,9.1-8.1c0.7-0.6,1.4-1.2,2.2-1.5
			c1.2-0.6,2.1-0.1,2.2,1.3c0.1,1.1,0,2.2-0.3,3.2c-1.2,4.6-2.5,9.2-3.7,13.8c-0.2,0.6-0.3,1.2-0.5,2c0.5-0.1,0.7-0.2,0.9-0.3
			c2.5-1.4,5.1-2.8,7.5-4.3c0.3-0.2,0.7-0.9,0.6-1.3c-2.3-7.3-0.1-13.3,5.3-18.3c2.1-1.9,4.3-3.7,7.2-4c1.3-0.1,2.8,0,4,0.4
			c3.7,1.3,4.6,5.2,2,8.1c-2,2.3-4.6,3.5-7.5,3.9c-2.1,0.3-4.3,0.3-6.5,0.3c-0.8,0-1.3,0.2-1.4,1c-0.2,1.9-0.6,3.9-0.4,5.7
			c0.3,2.6,2,4.3,4.5,5c2.1,0.6,4.3,1.2,6.4,1.1c8-0.2,16-0.4,24-1c11.7-0.8,23.3-2.2,35-1.8c4,0.2,8,0.7,11.9,1.5
			c1.9,0.4,3.8,1.4,5.2,2.7c2.2,1.9,1.2,5.5-1.6,6.2c-0.7,0.2-1.8-0.1-2.4-0.6c-0.7-0.7-0.2-1.7,0.4-2.4c0.2-0.2,0.4-0.4,0.6-0.6
			c0.8-0.7,0.7-1.3-0.2-1.6c-1.5-0.5-3-1-4.5-1.3c-7.4-1.2-14.9-1.2-22.4-0.7c-12.5,0.8-25,2-37.5,2.8c-4.5,0.3-9-0.1-13.4-0.5
			c-1.8-0.2-3.6-1.3-5.4-2c-0.5-0.2-1.2-0.3-1.6,0c-3.6,1.9-7.1,3.7-10.6,5.8c-1,0.6-2,1.8-2.4,3c-1.3,3.5-2.3,7.2-3.5,10.8
			c-2.6,7.9-5.5,15.7-9.9,22.9c-2,3.3-4.3,6.5-7.4,8.9c-1.7,1.3-3.6,2.6-5.6,3.3C9,86.8,5,85,3.1,80.7c-1.8-4-1.6-8.2-0.7-12.4
			c2.1-9.4,7.5-16.6,15.3-22c5.6-3.8,11.6-7.1,17.5-10.5c1.5-0.9,2.5-1.8,2.9-3.5c1.2-4.4,2.5-8.8,3.8-13.2
			C42,18.8,42.1,18.4,42.2,17.7z M36,39.6c-0.7,0.2-1,0.3-1.3,0.4c-5.2,2.2-10.1,4.9-14.5,8.5C13.7,53.8,8.7,60.1,6.3,68.2
			c-0.9,3.1-1.3,6.3-0.5,9.5c1.2,4.6,4.7,6,8.8,3.6c0.4-0.3,0.9-0.5,1.3-0.9c1.8-1.9,3.7-3.7,5.2-5.7c4.2-5.7,7-12.2,9.4-18.9
			C32.4,50.6,34.1,45.3,36,39.6z M56.2,13.4c3.5,0,7-0.1,9.9-2.2c0.7-0.5,1.4-1.6,1.3-2.4C67.3,7.6,66,7.4,65,7.4
			c-0.8,0-1.6,0.1-2.4,0.4C59.7,8.7,57.9,10.9,56.2,13.4z"/>
		<path d="M147.1,31.4c1.2,0,2,0.7,2,1.8c0,1.7-1.6,3.3-3.4,3.3c-1.2,0-2-0.7-2-1.9C143.7,33,145.3,31.4,147.1,31.4z"/>
	</g>
	<g>
		<path d="M51.8,43c-0.3-0.6-0.7-1.1-1.2-1.5c-0.6-0.4-1.2-0.5-2-0.5c-0.7,0-1.3,0.2-1.9,0.5c-0.6,0.3-1,0.8-1.3,1.4
			c-0.3,0.6-0.5,1.3-0.5,2.1c0,0.8,0.2,1.5,0.5,2.1c0.3,0.6,0.8,1.1,1.3,1.4c0.6,0.3,1.2,0.5,1.9,0.5c0.7,0,1.3-0.1,1.8-0.4
			c0.5-0.3,1-0.7,1.3-1.2s0.5-1.2,0.6-1.9h-4v-0.8h5v0.7c0,0.8-0.3,1.6-0.7,2.3c-0.4,0.7-1,1.2-1.6,1.6c-0.7,0.4-1.5,0.6-2.3,0.6
			c-0.9,0-1.7-0.2-2.4-0.6c-0.7-0.4-1.3-1-1.7-1.7c-0.4-0.7-0.6-1.6-0.6-2.5c0-0.9,0.2-1.8,0.6-2.5c0.4-0.7,1-1.3,1.7-1.7
			c0.7-0.4,1.5-0.6,2.4-0.6c1,0,1.9,0.3,2.7,0.8c0.8,0.5,1.3,1.2,1.7,2.1H51.8z"/>
		<path d="M56.1,44c0.3-0.6,0.7-1,1.3-1.3c0.5-0.3,1.2-0.5,1.8-0.5c0.7,0,1.3,0.2,1.8,0.5c0.5,0.3,0.9,0.7,1.1,1.3v-1.6h1v7.4h-1
			v-1.7c-0.2,0.5-0.6,0.9-1.1,1.3s-1.1,0.5-1.8,0.5c-0.7,0-1.3-0.2-1.8-0.5s-1-0.8-1.3-1.4c-0.3-0.6-0.5-1.3-0.5-2
			C55.7,45.3,55.8,44.6,56.1,44z M61.8,44.5c-0.2-0.5-0.6-0.8-1-1.1c-0.4-0.2-0.9-0.4-1.4-0.4c-0.5,0-1,0.1-1.4,0.4
			c-0.4,0.2-0.7,0.6-1,1s-0.4,1-0.4,1.6c0,0.6,0.1,1.1,0.4,1.6c0.2,0.5,0.6,0.8,1,1.1c0.4,0.2,0.9,0.4,1.4,0.4c0.5,0,1-0.1,1.4-0.4
			c0.4-0.2,0.8-0.6,1-1c0.2-0.5,0.4-1,0.4-1.6S62.1,44.9,61.8,44.5z"/>
		<path d="M66.6,44c0.3-0.6,0.7-1,1.3-1.3c0.5-0.3,1.2-0.5,1.8-0.5c0.7,0,1.2,0.2,1.8,0.5s0.9,0.7,1.2,1.2v-4.3h1v10.1h-1v-1.7
			c-0.2,0.5-0.6,0.9-1.1,1.3c-0.5,0.3-1.1,0.5-1.8,0.5c-0.7,0-1.3-0.2-1.8-0.5s-1-0.8-1.3-1.4c-0.3-0.6-0.5-1.3-0.5-2
			C66.1,45.3,66.2,44.6,66.6,44z M72.2,44.5c-0.2-0.5-0.6-0.8-1-1.1c-0.4-0.2-0.9-0.4-1.4-0.4c-0.5,0-1,0.1-1.4,0.4
			c-0.4,0.2-0.7,0.6-1,1s-0.4,1-0.4,1.6c0,0.6,0.1,1.1,0.4,1.6c0.2,0.5,0.6,0.8,1,1.1c0.4,0.2,0.9,0.4,1.4,0.4c0.5,0,1-0.1,1.4-0.4
			c0.4-0.2,0.8-0.6,1-1c0.2-0.5,0.4-1,0.4-1.6S72.5,44.9,72.2,44.5z"/>
		<path d="M81.9,42.7c0.5,0.3,0.9,0.7,1.1,1.2v-1.6h1V50c0,0.7-0.1,1.3-0.4,1.8s-0.7,0.9-1.2,1.2c-0.5,0.3-1.1,0.4-1.8,0.4
			c-1,0-1.7-0.2-2.4-0.7c-0.6-0.5-1-1.1-1.2-1.9h0.9c0.2,0.5,0.5,0.9,0.9,1.2c0.5,0.3,1,0.5,1.7,0.5c0.5,0,0.9-0.1,1.3-0.3
			s0.7-0.5,0.9-0.9C82.9,51,83,50.5,83,50v-1.8c-0.2,0.5-0.6,0.9-1.1,1.3s-1.1,0.5-1.8,0.5c-0.7,0-1.3-0.2-1.8-0.5s-1-0.8-1.3-1.4
			c-0.3-0.6-0.5-1.3-0.5-2c0-0.8,0.2-1.4,0.5-2c0.3-0.6,0.7-1,1.3-1.3c0.5-0.3,1.2-0.5,1.8-0.5C80.8,42.2,81.4,42.4,81.9,42.7z
			 M82.6,44.5c-0.2-0.5-0.6-0.8-1-1.1c-0.4-0.2-0.9-0.4-1.4-0.4c-0.5,0-1,0.1-1.4,0.4c-0.4,0.2-0.7,0.6-1,1s-0.4,1-0.4,1.6
			c0,0.6,0.1,1.1,0.4,1.6c0.2,0.5,0.6,0.8,1,1.1c0.4,0.2,0.9,0.4,1.4,0.4c0.5,0,1-0.1,1.4-0.4c0.4-0.2,0.8-0.6,1-1
			c0.2-0.5,0.4-1,0.4-1.6S82.9,44.9,82.6,44.5z"/>
		<path d="M94.1,46.4h-6.2c0,0.6,0.2,1,0.4,1.4c0.2,0.4,0.6,0.7,1,0.9s0.8,0.3,1.3,0.3c0.6,0,1.1-0.1,1.6-0.4
			c0.4-0.3,0.7-0.7,0.8-1.2h1c-0.2,0.7-0.6,1.3-1.2,1.8c-0.6,0.5-1.3,0.7-2.2,0.7c-0.7,0-1.3-0.2-1.9-0.5c-0.6-0.3-1-0.8-1.3-1.3
			c-0.3-0.6-0.5-1.3-0.5-2c0-0.8,0.2-1.5,0.5-2c0.3-0.6,0.7-1,1.3-1.3s1.2-0.5,1.9-0.5c0.7,0,1.3,0.2,1.9,0.5
			c0.5,0.3,0.9,0.7,1.2,1.2c0.3,0.5,0.4,1.1,0.4,1.7C94.1,46,94.1,46.2,94.1,46.4z M92.8,44.2c-0.2-0.4-0.5-0.7-0.9-0.9
			C91.4,43.1,91,43,90.5,43c-0.7,0-1.3,0.2-1.8,0.7s-0.8,1.1-0.8,1.9h5.2C93.1,45.1,93,44.6,92.8,44.2z"/>
		<path d="M98.3,43.1v4.6c0,0.5,0.1,0.8,0.3,0.9c0.2,0.2,0.5,0.3,0.9,0.3h0.9v0.8h-1c-0.7,0-1.2-0.2-1.5-0.5
			c-0.3-0.3-0.5-0.8-0.5-1.5v-4.6h-1v-0.8h1v-1.9h1v1.9h2v0.8H98.3z"/>
		<path d="M109,41v3.6h3.6v0.8H109V49h4v0.8h-5v-9.5h5V41H109z"/>
		<path d="M118,42.6c0.4-0.3,1-0.4,1.6-0.4v1h-0.3c-0.7,0-1.2,0.2-1.7,0.6c-0.4,0.4-0.6,1-0.6,1.9v4.2h-1v-7.4h1v1.3
			C117.2,43.2,117.6,42.8,118,42.6z"/>
		<path d="M122.2,44c0.3-0.6,0.7-1,1.3-1.3c0.5-0.3,1.2-0.5,1.8-0.5c0.7,0,1.3,0.2,1.8,0.5c0.5,0.3,0.9,0.7,1.1,1.3v-1.6h1v7.4h-1
			v-1.7c-0.2,0.5-0.6,0.9-1.1,1.3s-1.1,0.5-1.8,0.5c-0.7,0-1.3-0.2-1.8-0.5s-1-0.8-1.3-1.4c-0.3-0.6-0.5-1.3-0.5-2
			C121.8,45.3,121.9,44.6,122.2,44z M127.9,44.5c-0.2-0.5-0.6-0.8-1-1.1c-0.4-0.2-0.9-0.4-1.4-0.4c-0.5,0-1,0.1-1.4,0.4
			c-0.4,0.2-0.7,0.6-1,1s-0.4,1-0.4,1.6c0,0.6,0.1,1.1,0.4,1.6c0.2,0.5,0.6,0.8,1,1.1c0.4,0.2,0.9,0.4,1.4,0.4c0.5,0,1-0.1,1.4-0.4
			c0.4-0.2,0.8-0.6,1-1c0.2-0.5,0.4-1,0.4-1.6S128.2,44.9,127.9,44.5z"/>
	</g>
	<line class="st0" x1="44.1" y1="55.6" x2="130.5" y2="55.6"/>
</g>
</svg>
