<?xml version="1.0" encoding="utf-8"?>
<!-- Generator: Adobe Illustrator 22.0.0, SVG Export Plug-In . SVG Version: 6.00 Build 0)  -->
<svg version="1.1" id="Layer_1" xmlns="http://www.w3.org/2000/svg" xmlns:xlink="http://www.w3.org/1999/xlink" x="0px" y="0px"
	 viewBox="0 0 138.5 138.5" style="enable-background:new 0 0 138.5 138.5;" xml:space="preserve">
<style type="text/css">
	.st0{fill:#434343;}
	.st1{fill:#CBAD6D;}
	.st2{fill:none;stroke:#CBAD6D;stroke-width:0.6573;stroke-miterlimit:10;}
</style>
<g>
	<rect x="0.2" y="0.6" class="st0" width="138" height="138"/>
	<g>
		<g>
			<path class="st1" d="M33.3,52.1c-0.7,0.6-1.1,1.1-1.6,1.5c-2.1,1.8-4.2,3.8-6.4,5.4c-1.4,1-3,1.6-4.6,2.3
				c-0.5,0.2-1.1,0.2-1.6,0.2c-1.3,0-2.2-0.8-2.2-2.1c0-1.1,0-2.2,0.3-3.2c1.3-4.4,3.8-8.1,7.4-10.9c1.1-0.9,2.5-1.5,3.9-1.9
				c2-0.6,4.3,0.7,5.2,2.6c0.3,0.6,0.3,1.1-0.2,1.6c-0.5,0.4-1,0.1-1.4-0.3c0,0,0,0-0.1-0.1c-2.7-2.4-4.4-2.4-6.9,0.2
				c-2.7,2.8-4.5,6.1-5.9,9.8c-0.2,0.7-0.6,1.5,0.1,2c0.7,0.6,1.5,0.1,2-0.3c2-1.4,4-2.8,5.9-4.4c2-1.7,3.9-3.5,5.8-5.2
				c0.4-0.4,0.9-0.7,1.4-1c0.8-0.4,1.4,0,1.4,0.8c0.1,0.7,0,1.4-0.2,2.1c-0.8,3-1.6,5.9-2.4,8.9c-0.1,0.4-0.2,0.8-0.3,1.3
				c0.3-0.1,0.5-0.1,0.6-0.2c1.6-0.9,3.2-1.8,4.8-2.7c0.2-0.1,0.5-0.6,0.4-0.8c-1.5-4.7-0.1-8.6,3.4-11.8c1.3-1.2,2.7-2.4,4.6-2.6
				c0.8-0.1,1.8,0,2.6,0.3c2.4,0.8,3,3.3,1.3,5.2c-1.3,1.4-3,2.2-4.8,2.5c-1.4,0.2-2.8,0.2-4.2,0.2c-0.5,0-0.8,0.1-0.9,0.6
				c-0.1,1.2-0.4,2.5-0.2,3.7c0.2,1.7,1.3,2.8,2.9,3.2c1.3,0.4,2.7,0.8,4.1,0.7c5.1-0.1,10.2-0.3,15.3-0.6
				c7.5-0.5,14.9-1.4,22.4-1.1c2.6,0.1,5.1,0.5,7.6,1c1.2,0.2,2.4,0.9,3.3,1.7c1.4,1.2,0.7,3.5-1,4c-0.5,0.1-1.2-0.1-1.5-0.4
				c-0.5-0.5-0.1-1.1,0.3-1.5c0.1-0.1,0.3-0.3,0.4-0.4c0.5-0.4,0.4-0.8-0.1-1c-0.9-0.3-1.9-0.7-2.9-0.8c-4.8-0.8-9.6-0.8-14.3-0.4
				c-8,0.5-16,1.3-24,1.8c-2.9,0.2-5.8,0-8.6-0.3c-1.2-0.1-2.3-0.9-3.5-1.3c-0.3-0.1-0.8-0.2-1,0c-2.3,1.2-4.6,2.4-6.8,3.8
				c-0.7,0.4-1.3,1.2-1.5,1.9c-0.8,2.3-1.5,4.6-2.2,6.9c-1.6,5.1-3.5,10.1-6.3,14.7c-1.3,2.1-2.8,4.2-4.7,5.8
				c-1.1,0.9-2.3,1.6-3.6,2.1c-2.8,1.1-5.4-0.1-6.6-2.9c-1.2-2.6-1-5.3-0.4-8c1.4-6,4.8-10.7,9.8-14.1c3.6-2.5,7.4-4.6,11.2-6.8
				c1-0.6,1.6-1.2,1.9-2.3c0.8-2.9,1.6-5.7,2.4-8.5C33.2,52.8,33.2,52.6,33.3,52.1z M29.3,66.2c-0.5,0.1-0.6,0.2-0.8,0.2
				c-3.3,1.4-6.5,3.2-9.3,5.5c-4.1,3.4-7.4,7.5-8.9,12.7c-0.6,2-0.9,4.1-0.3,6.1c0.8,3,3,3.9,5.6,2.3c0.3-0.2,0.6-0.3,0.8-0.6
				c1.1-1.2,2.4-2.4,3.4-3.7c2.7-3.7,4.5-7.9,6-12.1C27,73.3,28.1,69.9,29.3,66.2z M42.3,49.3c2.2,0,4.5-0.1,6.3-1.4
				c0.4-0.3,0.9-1,0.9-1.5c-0.1-0.8-0.9-0.9-1.6-0.9c-0.5,0-1,0.1-1.5,0.2C44.5,46.4,43.3,47.8,42.3,49.3z"/>
			<path class="st1" d="M100.5,60.9c0.8,0,1.3,0.4,1.3,1.2c0,1.1-1.1,2.1-2.2,2.1c-0.8,0-1.3-0.5-1.3-1.2
				C98.3,62,99.3,60.9,100.5,60.9z"/>
		</g>
		<g>
			<path class="st1" d="M42.8,72c-0.3-0.7-0.8-1.3-1.4-1.7c-0.6-0.4-1.4-0.6-2.2-0.6s-1.5,0.2-2.2,0.6c-0.6,0.4-1.1,0.9-1.5,1.6
				s-0.6,1.5-0.6,2.4s0.2,1.7,0.6,2.4c0.4,0.7,0.9,1.2,1.5,1.6s1.4,0.6,2.2,0.6c0.7,0,1.4-0.2,2-0.5s1.1-0.8,1.4-1.4
				c0.4-0.6,0.6-1.3,0.6-2.1h-4.5V74h5.7v0.8c-0.1,0.9-0.3,1.8-0.8,2.6c-0.5,0.8-1.1,1.4-1.9,1.8c-0.8,0.4-1.6,0.7-2.6,0.7
				s-1.9-0.2-2.7-0.7s-1.5-1.1-1.9-2c-0.5-0.8-0.7-1.8-0.7-2.9s0.2-2,0.7-2.9c0.5-0.8,1.1-1.5,1.9-2c0.8-0.5,1.7-0.7,2.7-0.7
				c1.1,0,2.2,0.3,3,0.9C43,70.2,43.6,71,44,72C44,72,42.8,72,42.8,72z"/>
			<path class="st1" d="M47.8,73.2c0.3-0.7,0.8-1.2,1.4-1.5c0.6-0.4,1.3-0.5,2.1-0.5s1.5,0.2,2.1,0.6s1,0.8,1.3,1.4v-1.9h1.1v8.5
				h-1.1v-1.9c-0.3,0.6-0.7,1.1-1.3,1.4c-0.6,0.4-1.3,0.6-2.1,0.6s-1.4-0.2-2.1-0.5c-0.6-0.4-1.1-0.9-1.4-1.5
				c-0.3-0.7-0.5-1.4-0.5-2.3C47.2,74.6,47.4,73.8,47.8,73.2z M54.2,73.7c-0.3-0.5-0.7-0.9-1.1-1.2c-0.5-0.3-1-0.4-1.6-0.4
				s-1.1,0.1-1.6,0.4s-0.8,0.7-1.1,1.2s-0.4,1.1-0.4,1.8c0,0.7,0.1,1.3,0.4,1.8c0.3,0.5,0.6,0.9,1.1,1.2c0.5,0.3,1,0.4,1.6,0.4
				s1.1-0.1,1.6-0.4s0.9-0.7,1.1-1.2c0.3-0.5,0.4-1.1,0.4-1.8C54.6,74.8,54.5,74.2,54.2,73.7z"/>
			<path class="st1" d="M59.5,73.2c0.3-0.7,0.8-1.2,1.4-1.5c0.6-0.4,1.3-0.5,2.1-0.5c0.7,0,1.4,0.2,2,0.5c0.6,0.4,1,0.8,1.3,1.4
				v-4.8h1.1v11.5h-1.1v-1.9C66,78.5,65.6,79,65,79.3c-0.6,0.4-1.3,0.6-2.1,0.6s-1.5-0.2-2.1-0.5c-0.6-0.4-1.1-0.9-1.4-1.5
				c-0.3-0.7-0.5-1.4-0.5-2.3C59,74.6,59.2,73.8,59.5,73.2z M65.9,73.7c-0.3-0.5-0.7-0.9-1.1-1.2c-0.5-0.3-1-0.4-1.6-0.4
				s-1.1,0.1-1.6,0.4s-0.8,0.7-1.1,1.2s-0.4,1.1-0.4,1.8c0,0.7,0.1,1.3,0.4,1.8c0.3,0.5,0.6,0.9,1.1,1.2c0.5,0.3,1,0.4,1.6,0.4
				s1.1-0.1,1.6-0.4s0.9-0.7,1.1-1.2c0.3-0.5,0.4-1.1,0.4-1.8C66.3,74.8,66.2,74.2,65.9,73.7z"/>
			<path class="st1" d="M76.8,71.7c0.6,0.4,1,0.8,1.3,1.4v-1.8h1.1V80c0,0.8-0.2,1.5-0.5,2.1s-0.8,1.1-1.4,1.4S76,84,75.3,84
				c-1.1,0-2-0.3-2.7-0.8s-1.2-1.2-1.3-2.1h1.1c0.2,0.6,0.5,1.1,1.1,1.4c0.5,0.4,1.2,0.5,1.9,0.5c0.5,0,1-0.1,1.5-0.3
				c0.4-0.2,0.8-0.6,1-1c0.2-0.5,0.4-1,0.4-1.6V78c-0.3,0.6-0.7,1.1-1.3,1.4c-0.6,0.4-1.3,0.6-2.1,0.6c-0.8,0-1.5-0.2-2.1-0.5
				c-0.6-0.4-1.1-0.9-1.4-1.5c-0.3-0.7-0.5-1.4-0.5-2.3s0.2-1.6,0.5-2.3c0.3-0.7,0.8-1.2,1.4-1.5c0.6-0.4,1.3-0.5,2.1-0.5
				C75.6,71.1,76.2,71.3,76.8,71.7z M77.7,73.7c-0.3-0.5-0.7-0.9-1.1-1.2c-0.5-0.3-1-0.4-1.6-0.4s-1.1,0.1-1.6,0.4s-0.8,0.7-1.1,1.2
				c-0.3,0.5-0.4,1.1-0.4,1.8c0,0.7,0.1,1.3,0.4,1.8s0.6,0.9,1.1,1.2c0.5,0.3,1,0.4,1.6,0.4s1.1-0.1,1.6-0.4s0.9-0.7,1.1-1.2
				c0.3-0.5,0.4-1.1,0.4-1.8C78.1,74.8,78,74.2,77.7,73.7z"/>
			<path class="st1" d="M90.6,75.9h-7c0,0.6,0.2,1.2,0.5,1.6s0.6,0.8,1.1,1s0.9,0.3,1.5,0.3c0.7,0,1.3-0.2,1.8-0.5s0.8-0.8,0.9-1.4
				h1.1c-0.2,0.8-0.6,1.5-1.3,2c-0.7,0.5-1.5,0.8-2.5,0.8c-0.8,0-1.5-0.2-2.1-0.5c-0.6-0.4-1.1-0.9-1.5-1.5
				c-0.4-0.7-0.5-1.4-0.5-2.3s0.2-1.6,0.5-2.3c0.3-0.7,0.8-1.2,1.5-1.5c0.6-0.4,1.3-0.5,2.1-0.5c0.8,0,1.5,0.2,2.1,0.5
				c0.6,0.4,1.1,0.8,1.4,1.4s0.5,1.3,0.5,2C90.6,75.4,90.6,75.7,90.6,75.9z M89.1,73.4c-0.3-0.4-0.6-0.8-1.1-1s-0.9-0.3-1.5-0.3
				c-0.8,0-1.5,0.3-2,0.8c-0.6,0.5-0.9,1.2-0.9,2.2h5.9C89.5,74.4,89.4,73.8,89.1,73.4z"/>
			<path class="st1" d="M95.3,72.2v5.2c0,0.5,0.1,0.9,0.3,1.1c0.2,0.2,0.5,0.3,1,0.3h1v0.9h-1.2c-0.8,0-1.3-0.2-1.7-0.5
				c-0.4-0.4-0.6-0.9-0.6-1.8v-5.2h-1.2v-0.9h1.2v-2.1h1.1v2.1h2.3v0.9H95.3z"/>
			<path class="st1" d="M107.4,69.8v4h4.1v0.9h-4.1v4.1h4.5v0.9h-5.6V68.9h5.6v0.9H107.4z"/>
			<path class="st1" d="M117.6,71.5c0.5-0.3,1.1-0.4,1.8-0.4v1.1h-0.3c-0.8,0-1.4,0.2-1.9,0.6s-0.7,1.1-0.7,2.1v4.7h-1.1v-8.5h1.1
				v1.5C116.8,72.2,117.1,71.8,117.6,71.5z"/>
			<path class="st1" d="M122.4,73.2c0.3-0.7,0.8-1.2,1.4-1.5c0.6-0.4,1.3-0.5,2.1-0.5c0.8,0,1.5,0.2,2.1,0.6c0.6,0.4,1,0.8,1.3,1.4
				v-1.9h1.1v8.5h-1.1v-1.9c-0.3,0.6-0.7,1.1-1.3,1.4c-0.6,0.4-1.3,0.6-2.1,0.6c-0.8,0-1.4-0.2-2.1-0.5c-0.6-0.4-1.1-0.9-1.4-1.5
				c-0.3-0.7-0.5-1.4-0.5-2.3C121.9,74.6,122,73.8,122.4,73.2z M128.8,73.7c-0.3-0.5-0.7-0.9-1.1-1.2c-0.5-0.3-1-0.4-1.6-0.4
				s-1.1,0.1-1.6,0.4s-0.8,0.7-1.1,1.2c-0.3,0.5-0.4,1.1-0.4,1.8c0,0.7,0.1,1.3,0.4,1.8s0.6,0.9,1.1,1.2c0.5,0.3,1,0.4,1.6,0.4
				s1.1-0.1,1.6-0.4c0.5-0.3,0.9-0.7,1.1-1.2c0.3-0.5,0.4-1.1,0.4-1.8C129.2,74.8,129.1,74.2,128.8,73.7z"/>
		</g>
		<line class="st2" x1="33.9" y1="85.7" x2="131" y2="85.7"/>
	</g>
</g>
</svg>
