<?xml version="1.0" encoding="utf-8"?>
<!-- Generator: Adobe Illustrator 22.0.0, SVG Export Plug-In . SVG Version: 6.00 Build 0)  -->
<svg version="1.1" id="Layer_1" xmlns="http://www.w3.org/2000/svg" xmlns:xlink="http://www.w3.org/1999/xlink" x="0px" y="0px"
	 viewBox="0 0 153.5 63.9" style="enable-background:new 0 0 153.5 63.9;" xml:space="preserve">
<style type="text/css">
	.st0{fill:#CBAD6D;}
	.st1{fill:none;stroke:#CBAD6D;stroke-width:0.7572;stroke-miterlimit:10;}
</style>
<g>
	<g>
		<path class="st0" d="M31.9,12.1c-0.8,0.7-1.3,1.2-1.9,1.7c-2.4,2.1-4.8,4.3-7.4,6.2c-1.6,1.2-3.5,1.8-5.3,2.6
			c-0.5,0.2-1.2,0.2-1.9,0.2c-1.5,0-2.5-0.9-2.6-2.4c-0.1-1.2,0-2.5,0.4-3.7c1.5-5.1,4.3-9.3,8.5-12.6c1.3-1,2.9-1.7,4.5-2.1
			c2.3-0.6,5,0.8,6,3c0.3,0.6,0.4,1.3-0.2,1.8C31.5,7.4,31,7,30.6,6.6c0,0-0.1,0-0.1-0.1c-3.2-2.8-5-2.8-8,0.2
			c-3.1,3.2-5.2,7.1-6.8,11.3c-0.3,0.8-0.7,1.7,0.1,2.4c0.8,0.7,1.7,0.1,2.3-0.3c2.3-1.6,4.6-3.2,6.8-5c2.3-1.9,4.5-4,6.7-6
			c0.5-0.4,1-0.9,1.6-1.1c0.9-0.4,1.6,0,1.6,0.9c0.1,0.8,0,1.6-0.2,2.4c-0.9,3.4-1.8,6.8-2.7,10.3c-0.1,0.4-0.2,0.9-0.4,1.5
			c0.3-0.1,0.5-0.1,0.7-0.2c1.9-1,3.7-2.1,5.6-3.2c0.3-0.1,0.5-0.7,0.4-0.9c-1.7-5.4-0.1-9.9,3.9-13.6c1.5-1.4,3.2-2.7,5.3-3
			c1-0.1,2,0,3,0.3c2.7,0.9,3.4,3.8,1.5,6c-1.5,1.7-3.4,2.6-5.6,2.9c-1.6,0.3-3.2,0.2-4.8,0.2c-0.6,0-1,0.1-1,0.7
			c-0.1,1.4-0.4,2.9-0.3,4.3c0.2,1.9,1.5,3.2,3.3,3.7c1.5,0.5,3.1,0.9,4.7,0.8c5.9-0.1,11.8-0.3,17.7-0.7c8.6-0.6,17.2-1.7,25.8-1.3
			c2.9,0.1,5.9,0.5,8.8,1.1c1.4,0.3,2.8,1,3.8,2c1.6,1.4,0.9,4-1.2,4.6c-0.5,0.1-1.4-0.1-1.7-0.5c-0.5-0.5-0.2-1.2,0.3-1.8
			c0.1-0.2,0.3-0.3,0.5-0.4c0.6-0.5,0.5-1-0.2-1.2c-1.1-0.4-2.2-0.8-3.3-0.9c-5.5-0.9-11-0.9-16.5-0.5c-9.2,0.6-18.4,1.5-27.7,2.1
			c-3.3,0.2-6.6,0-9.9-0.4c-1.4-0.1-2.6-1-4-1.5c-0.4-0.1-0.9-0.2-1.2,0c-2.6,1.4-5.3,2.8-7.8,4.3c-0.8,0.5-1.4,1.4-1.8,2.2
			c-1,2.6-1.7,5.3-2.6,8c-1.9,5.9-4.1,11.7-7.3,17c-1.5,2.5-3.2,4.8-5.4,6.6c-1.2,1-2.6,1.9-4.1,2.4c-3.3,1.2-6.2-0.1-7.6-3.3
			c-1.3-3-1.2-6.1-0.5-9.2c1.6-7,5.5-12.3,11.3-16.3c4.1-2.8,8.6-5.3,12.9-7.8c1.1-0.6,1.8-1.3,2.2-2.6c0.9-3.3,1.9-6.5,2.8-9.8
			C31.8,13,31.8,12.7,31.9,12.1z M27.3,28.4c-0.5,0.2-0.7,0.2-0.9,0.3c-3.8,1.6-7.5,3.6-10.7,6.3c-4.8,3.9-8.5,8.6-10.3,14.7
			c-0.7,2.3-1,4.7-0.4,7.1c0.9,3.4,3.5,4.4,6.5,2.6c0.3-0.2,0.7-0.4,0.9-0.7c1.3-1.4,2.7-2.7,3.9-4.3c3.1-4.3,5.2-9.1,6.9-14
			C24.7,36.5,25.9,32.6,27.3,28.4z M42.3,8.9c2.6,0,5.1-0.1,7.3-1.7c0.5-0.4,1-1.2,1-1.8c-0.1-0.9-1.1-1-1.8-1
			c-0.6,0-1.2,0.1-1.7,0.3C44.9,5.5,43.5,7.1,42.3,8.9z"/>
		<path class="st0" d="M109.3,22.3c0.9,0,1.5,0.5,1.5,1.4c0,1.2-1.2,2.4-2.5,2.4c-0.9,0-1.5-0.5-1.5-1.4
			C106.8,23.5,108,22.3,109.3,22.3z"/>
	</g>
	<g>
		<path class="st0" d="M42.9,35.1c-0.4-0.8-0.9-1.5-1.6-1.9c-0.7-0.5-1.6-0.7-2.6-0.7c-0.9,0-1.8,0.2-2.5,0.6
			c-0.7,0.4-1.3,1-1.7,1.8s-0.6,1.7-0.6,2.8s0.2,2,0.6,2.8s1,1.4,1.7,1.8c0.7,0.4,1.6,0.6,2.5,0.6c0.9,0,1.6-0.2,2.3-0.6
			s1.2-0.9,1.7-1.6c0.4-0.7,0.7-1.5,0.7-2.4h-5.2v-1h6.5v0.9c-0.1,1.1-0.4,2.1-0.9,3c-0.5,0.9-1.2,1.6-2.1,2.1
			c-0.9,0.5-1.9,0.8-3,0.8c-1.1,0-2.2-0.3-3.1-0.8c-0.9-0.5-1.7-1.3-2.2-2.3s-0.8-2.1-0.8-3.3s0.3-2.3,0.8-3.3s1.3-1.7,2.2-2.3
			c0.9-0.5,2-0.8,3.1-0.8c1.3,0,2.5,0.3,3.5,1c1,0.7,1.7,1.6,2.2,2.8H42.9z"/>
		<path class="st0" d="M48.6,36.4c0.4-0.8,0.9-1.3,1.6-1.7s1.5-0.6,2.4-0.6c0.9,0,1.7,0.2,2.4,0.6c0.7,0.4,1.1,1,1.4,1.6v-2.1h1.2
			v9.7h-1.2v-2.2c-0.3,0.7-0.8,1.2-1.5,1.6c-0.7,0.4-1.5,0.7-2.4,0.7c-0.9,0-1.7-0.2-2.4-0.6s-1.3-1-1.6-1.8C48.2,40.9,48,40,48,39
			S48.2,37.2,48.6,36.4z M56,37c-0.3-0.6-0.8-1.1-1.3-1.4c-0.6-0.3-1.2-0.5-1.8-0.5c-0.7,0-1.3,0.2-1.8,0.5c-0.5,0.3-1,0.8-1.3,1.3
			c-0.3,0.6-0.5,1.3-0.5,2.1c0,0.8,0.2,1.5,0.5,2.1c0.3,0.6,0.7,1.1,1.3,1.4c0.5,0.3,1.2,0.5,1.8,0.5c0.7,0,1.3-0.2,1.8-0.5
			c0.5-0.3,1-0.8,1.3-1.4c0.3-0.6,0.5-1.3,0.5-2.1C56.4,38.3,56.3,37.6,56,37z"/>
		<path class="st0" d="M62.1,36.4c0.4-0.8,1-1.3,1.7-1.7c0.7-0.4,1.5-0.6,2.4-0.6c0.9,0,1.6,0.2,2.3,0.6c0.7,0.4,1.2,1,1.5,1.6v-5.6
			h1.2v13.2H70v-2.2c-0.3,0.7-0.8,1.2-1.5,1.7c-0.7,0.4-1.5,0.7-2.4,0.7c-0.9,0-1.7-0.2-2.4-0.6s-1.3-1-1.6-1.8
			c-0.4-0.8-0.6-1.6-0.6-2.6S61.7,37.2,62.1,36.4z M69.5,37c-0.3-0.6-0.8-1.1-1.3-1.4c-0.6-0.3-1.2-0.5-1.8-0.5
			c-0.7,0-1.3,0.2-1.8,0.5c-0.5,0.3-1,0.8-1.3,1.3c-0.3,0.6-0.5,1.3-0.5,2.1c0,0.8,0.2,1.5,0.5,2.1c0.3,0.6,0.7,1.1,1.3,1.4
			c0.5,0.3,1.2,0.5,1.8,0.5c0.7,0,1.3-0.2,1.8-0.5c0.5-0.3,1-0.8,1.3-1.4c0.3-0.6,0.5-1.3,0.5-2.1C70,38.3,69.8,37.6,69.5,37z"/>
		<path class="st0" d="M82.1,34.7c0.7,0.4,1.2,1,1.5,1.6v-2.1h1.2v10c0,0.9-0.2,1.7-0.6,2.4c-0.4,0.7-0.9,1.2-1.6,1.6
			c-0.7,0.4-1.5,0.6-2.3,0.6c-1.2,0-2.3-0.3-3.1-0.9s-1.3-1.4-1.5-2.4h1.2c0.2,0.7,0.6,1.2,1.2,1.6c0.6,0.4,1.3,0.6,2.2,0.6
			c0.6,0,1.2-0.1,1.7-0.4c0.5-0.3,0.9-0.7,1.2-1.2c0.3-0.5,0.4-1.1,0.4-1.9v-2.4c-0.3,0.7-0.8,1.2-1.5,1.6c-0.7,0.4-1.5,0.7-2.4,0.7
			c-0.9,0-1.7-0.2-2.4-0.6s-1.3-1-1.6-1.8c-0.4-0.8-0.6-1.6-0.6-2.6s0.2-1.9,0.6-2.6c0.4-0.8,0.9-1.3,1.6-1.7s1.5-0.6,2.4-0.6
			C80.6,34,81.4,34.2,82.1,34.7z M83,37c-0.3-0.6-0.8-1.1-1.3-1.4c-0.6-0.3-1.2-0.5-1.8-0.5c-0.7,0-1.3,0.2-1.8,0.5
			c-0.5,0.3-1,0.8-1.3,1.3c-0.3,0.6-0.5,1.3-0.5,2.1c0,0.8,0.2,1.5,0.5,2.1c0.3,0.6,0.7,1.1,1.3,1.4c0.5,0.3,1.2,0.5,1.8,0.5
			c0.7,0,1.3-0.2,1.8-0.5c0.5-0.3,1-0.8,1.3-1.4c0.3-0.6,0.5-1.3,0.5-2.1C83.5,38.3,83.4,37.6,83,37z"/>
		<path class="st0" d="M97.9,39.5h-8c0,0.7,0.2,1.4,0.5,1.9s0.7,0.9,1.3,1.2s1.1,0.4,1.7,0.4c0.8,0,1.5-0.2,2-0.6
			c0.5-0.4,0.9-0.9,1.1-1.6h1.3c-0.2,1-0.7,1.7-1.5,2.3c-0.8,0.6-1.7,0.9-2.9,0.9c-0.9,0-1.7-0.2-2.4-0.6c-0.7-0.4-1.3-1-1.7-1.7
			c-0.4-0.8-0.6-1.6-0.6-2.6c0-1,0.2-1.9,0.6-2.7c0.4-0.8,1-1.3,1.7-1.7c0.7-0.4,1.5-0.6,2.5-0.6c0.9,0,1.7,0.2,2.4,0.6
			c0.7,0.4,1.2,0.9,1.6,1.6c0.4,0.7,0.6,1.4,0.6,2.3C97.9,39,97.9,39.3,97.9,39.5z M96.2,36.7c-0.3-0.5-0.7-0.9-1.2-1.2
			c-0.5-0.3-1.1-0.4-1.7-0.4c-0.9,0-1.7,0.3-2.4,0.9c-0.7,0.6-1,1.4-1.1,2.5h6.8C96.7,37.8,96.5,37.2,96.2,36.7z"/>
		<path class="st0" d="M103.4,35.2v6c0,0.6,0.1,1,0.3,1.2c0.2,0.2,0.6,0.3,1.2,0.3h1.1v1.1h-1.3c-0.9,0-1.5-0.2-2-0.6
			s-0.6-1.1-0.6-2v-6h-1.3v-1.1h1.3v-2.4h1.3v2.4h2.7v1.1H103.4z"/>
		<path class="st0" d="M117.3,32.5v4.7h4.7v1h-4.7v4.7h5.2v1h-6.5V31.4h6.5v1H117.3z"/>
		<path class="st0" d="M129,34.5c0.6-0.3,1.3-0.5,2.1-0.5v1.3h-0.3c-0.9,0-1.6,0.2-2.2,0.7c-0.5,0.5-0.8,1.3-0.8,2.4v5.4h-1.2v-9.7
			h1.2v1.7C128,35.3,128.5,34.8,129,34.5z"/>
		<path class="st0" d="M134.5,36.4c0.4-0.8,0.9-1.3,1.6-1.7s1.5-0.6,2.4-0.6c0.9,0,1.7,0.2,2.4,0.6c0.7,0.4,1.1,1,1.4,1.6v-2.1h1.2
			v9.7h-1.2v-2.2c-0.3,0.7-0.8,1.2-1.5,1.6c-0.7,0.4-1.5,0.7-2.4,0.7c-0.9,0-1.7-0.2-2.4-0.6s-1.3-1-1.6-1.8
			c-0.4-0.8-0.6-1.6-0.6-2.6S134.1,37.2,134.5,36.4z M141.9,37c-0.3-0.6-0.8-1.1-1.3-1.4c-0.6-0.3-1.2-0.5-1.8-0.5
			c-0.7,0-1.3,0.2-1.8,0.5c-0.5,0.3-1,0.8-1.3,1.3c-0.3,0.6-0.5,1.3-0.5,2.1c0,0.8,0.2,1.5,0.5,2.1c0.3,0.6,0.7,1.1,1.3,1.4
			c0.5,0.3,1.2,0.5,1.8,0.5c0.7,0,1.3-0.2,1.8-0.5c0.5-0.3,1-0.8,1.3-1.4c0.3-0.6,0.5-1.3,0.5-2.1C142.4,38.3,142.3,37.6,141.9,37z"
			/>
	</g>
	<line class="st1" x1="32.6" y1="50.8" x2="144.4" y2="50.8"/>
</g>
</svg>
