<svg xmlns="http://www.w3.org/2000/svg" viewBox="0 0 812 214.96"><defs><style>.cls-1{font-size:87.89px;font-family:SegoeScript, Segoe Script;}.cls-1,.cls-3{fill:#fff;}.cls-2{fill:#fe4a21;}</style></defs><g id="Layer_2" data-name="Layer 2"><g id="Layer_1-2" data-name="Layer 1"><text class="cls-1" transform="translate(176.37 99.96)">Gadget<tspan class="cls-2" x="322.37" y="0" xml:space="preserve"> Era</tspan></text><path class="cls-2" d="M99.18,66V95.22h27s-7.76,39.92-48.55,34.25c0,0-47.58-4.53-45.32-52.11,0,0,0-41.92,45.32-46.45,0,0,15.86,0,19.26,3.39V2.58S40.83-17.25,4.58,53c0,0-20.4,52.11,24.92,90.63,0,0,41.92,35.12,94,6.8,0,0,38.52-23.79,38.52-60.05V66.29Z"/><circle class="cls-3" cx="83.26" cy="80.78" r="23.88"/><path class="cls-2" d="M369.07,215S646,79,812,149.66C753.29,139.11,608.06,114.47,369.07,215Z"/></g></g></svg>