<?xml version="1.0" encoding="utf-8"?>
<!-- Generator: Adobe Illustrator 24.3.0, SVG Export Plug-In . SVG Version: 6.00 Build 0)  -->
<svg version="1.1" id="Layer_1" xmlns="http://www.w3.org/2000/svg" xmlns:xlink="http://www.w3.org/1999/xlink" x="0px" y="0px"
	 viewBox="0 0 812 215" style="enable-background:new 0 0 812 215;" xml:space="preserve">
<style type="text/css">
	.st0{enable-background:new    ;}
	.st1{fill:#442C2E;}
	.st2{fill:#FE4A21;}
</style>
<g id="Layer_2_1_">
	<g id="Layer_1-2">
		<g class="st0">
			<path class="st1" d="M245.7,40.9c0,1.3-0.4,2.4-1.1,3.3c-0.7,0.9-1.7,1.4-3,1.4c-0.5,0-1-0.2-1.6-0.7c-0.6-0.4-1.1-0.9-1.6-1.3
				c-0.5-0.5-1-0.9-1.6-1.2c-0.6-0.3-1.3-0.5-2-0.5c-3.5,0-8.1,1.2-13.6,3.5c-2.8,1.2-5.4,2.6-7.8,4.1s-4.8,3.3-7.1,5.2
				c-2.3,1.9-4.5,4-6.6,6.4c-2.1,2.3-3.9,4.7-5.5,7c-1.5,2.1-2.6,4.6-3.4,7.6c-0.8,2.9-1.2,5.8-1.2,8.5c0,1.3,0.7,2.7,2,4.1
				c1.3,1.4,2.7,2.3,4.2,2.7c1.7,0.5,3.8,0.7,6.2,0.7c1.8,0,3.7-0.2,5.8-0.7c2.1-0.5,4.1-1.1,6.2-1.9s4.1-1.7,6-2.8
				c1.9-1,3.7-2.1,5.3-3.3c0.6-0.5,1.2-1,1.8-1.6c0.6-0.6,1.3-1.3,2-2.2c0.7-0.8,1.3-1.6,1.7-2.3s0.9-1.4,1.1-2
				c0.2-0.3,0.3-0.7,0.3-1.1c0-0.4-0.1-1-0.3-1.6c-0.2-0.6-0.3-1.2-0.3-1.6c0-1.1,1.3-1.6,3.9-1.6c0.8,0,2,0.6,3.6,1.8
				c1.6,1.2,2.4,2.1,2.4,2.8c0,0.1-0.9,1.9-2.7,5.5c-0.9,1.8-1.6,3.1-2,4.1c-0.5,1-0.8,1.6-0.8,1.8c-0.5,1.1-1,2.4-1.5,3.8
				c-0.5,1.4-1,2.9-1.5,4.6c-1,3.4-1.5,5.8-1.5,7.3c-0.1,0.3,0,0.6,0.1,0.9c0.1,0.3,0.3,0.6,0.4,0.8c0.2,0.2,0.3,0.5,0.5,0.6
				c0.2,0.2,0.2,0.3,0.2,0.4c0,0.7-0.1,1.3-0.4,1.9c-0.2,0.6-0.6,1.1-1,1.5c-0.4,0.4-0.9,0.8-1.5,1.1c-0.6,0.3-1.2,0.4-1.9,0.4
				c-1.5,0-2.5-0.5-3-1.5c-0.5-1-0.8-2.4-0.8-4.1c0-0.5,0-0.9,0.1-1.3c0-0.4,0.1-0.9,0.2-1.3c0.2-0.9,0.4-1.9,0.6-3
				c0.1-0.5,0.3-1,0.4-1.4s0.2-0.8,0.3-1.1c0.4-1.6,0.6-2.7,0.6-3.3c0-0.3-0.1-0.4-0.2-0.4c-0.6,0-2.5,0.8-5.6,2.4
				c-1.6,0.8-2.9,1.4-3.8,1.8c-1,0.5-1.6,0.8-2,0.9c-5,2-9.7,3-14.1,3c-2.8,0-5.8-0.6-9-1.7c-3.2-1.2-5.9-2.8-8.1-5
				c-2.2-2.2-3.3-4.7-3.3-7.6c0-8.5,3.9-17.2,11.7-26.3c3.4-4,6.8-7.3,10-10.1c3.2-2.7,7.1-5.2,11.8-7.6c0.7-0.4,1.6-0.8,2.5-1.2
				c0.9-0.4,2-0.8,3.1-1.3c2.3-0.9,4.6-1.7,6.9-2.3c2.3-0.7,4.4-1.1,6.4-1.4c1.2-0.2,3.1-0.3,5.5-0.3c0.9,0,1.8,0.1,2.6,0.5
				c0.9,0.4,1.6,0.9,2.3,1.5c0.7,0.6,1.2,1.4,1.6,2.2C245.6,39.2,245.7,40,245.7,40.9z"/>
			<path class="st1" d="M317.8,70.7c0,0.3,0,0.8-0.1,1.2c-0.1,0.5-0.2,1-0.4,1.4c-0.2,0.5-0.3,1-0.5,1.4c-0.2,0.4-0.4,0.8-0.6,1.1
				c-0.2,0.2-0.4,0.5-0.8,0.9c-0.3,0.4-0.7,0.8-1.1,1.3c-0.4,0.5-0.8,0.9-1.3,1.4c-0.5,0.5-1,1-1.5,1.4c-1.8,1.6-3.5,3.2-5.2,4.7
				c-1.7,1.5-3.5,2.9-5.3,4.1c-1.8,1.2-3.7,2.1-5.6,2.8c-2,0.7-4.1,1-6.4,1c-1.1,0-2.1-0.2-3.2-0.6c-1.1-0.4-2.1-0.9-3-1.7
				c-0.9-0.7-1.8-1.6-2.4-2.6c-0.7-1-1.2-2.1-1.5-3.3c-0.8,0.9-1.7,1.8-2.6,2.7c-0.9,0.9-1.9,1.9-2.9,2.8c-1,0.9-2,1.9-3.1,2.7
				c-1.1,0.9-2.1,1.7-3.3,2.4c-0.6,0.4-1.4,0.8-2.3,1.3c-0.9,0.5-1.8,0.9-2.7,1.3c-1,0.4-1.9,0.7-2.9,0.9c-1,0.2-1.8,0.4-2.6,0.4
				c-1.2,0-2.2-0.4-3-1.1c-0.8-0.7-1.5-1.6-2.1-2.7c-0.6-1.1-1-2.2-1.2-3.4c-0.3-1.2-0.4-2.3-0.4-3.2c0-1.9,0.3-3.8,0.8-5.8
				c0.5-2,1.3-3.9,2.1-5.8c0.9-1.9,1.8-3.7,2.9-5.3c1.1-1.7,2.1-3.2,3.2-4.5c1.1-1.4,2.4-2.7,3.9-4.1c1.5-1.4,3-2.6,4.6-3.6
				c1.6-1.1,3.2-1.9,4.7-2.6s2.9-1,4.1-1c0.6,0,1.2,0,1.9,0c0.7,0,1.3,0,2,0.1c0.7,0.1,1.3,0.2,1.9,0.3c0.6,0.2,1.2,0.4,1.7,0.7
				c0.3,0.2,0.6,0.5,0.9,1s0.7,1,1,1.6c0.3,0.6,0.6,1.2,0.8,1.8c0.2,0.6,0.3,1.1,0.3,1.4c0,0.9-0.2,2.2-0.6,3.8
				c-0.5,2-0.9,3.8-1.3,5.4s-0.6,3.3-0.6,5c0,1,0.2,2,0.5,3c0.3,1,0.8,1.9,1.4,2.8c0.6,0.8,1.3,1.5,2.1,2c0.8,0.5,1.8,0.8,2.9,0.8
				c1.7,0,3.5-0.4,5.4-1.1c1.8-0.7,3.7-1.7,5.6-3c1.9-1.3,3.7-2.7,5.6-4.4c1.9-1.7,3.7-3.5,5.5-5.3c0.1-0.2,0.4-0.5,0.8-0.9
				c0.4-0.4,0.7-0.8,1.1-1.2s0.8-0.8,1.1-1.1c0.4-0.3,0.6-0.5,0.8-0.5C317.5,69,317.8,69.6,317.8,70.7z M279.6,67.2
				c0-0.5,0-1.1-0.1-1.8c-0.1-0.7-0.2-1.3-0.6-1.8c-0.3-0.5-0.7-0.7-1.2-0.7c-0.5,0-0.9,0-1.4,0c-1,0-2,0.2-2.9,0.5
				c-0.9,0.3-1.8,0.8-2.7,1.3c-0.9,0.6-1.7,1.2-2.6,1.9c-0.8,0.7-1.6,1.5-2.4,2.3c-0.7,0.7-1.4,1.5-2.1,2.4s-1.4,2-2.1,3.2
				c-0.7,1.2-1.4,2.4-2,3.6c-0.7,1.3-1.2,2.5-1.7,3.8c-0.5,1.2-0.9,2.4-1.2,3.6c-0.3,1.2-0.4,2.2-0.4,3.2c0,0.3,0,0.7,0.1,1.1
				c0.1,0.5,0.2,0.9,0.3,1.4c0.2,0.4,0.4,0.8,0.6,1.1s0.6,0.5,1,0.5c1.3,0,3-0.4,4.9-1.2c2.7-1.1,5.1-2.7,7.3-4.7
				c2.2-2,4.1-4.3,5.6-6.9C278.5,76.1,279.6,71.8,279.6,67.2z"/>
			<path class="st1" d="M379.7,70.3c0,0.7-0.2,1.4-0.5,2.1c-0.6,1.3-2.1,3.2-4.3,5.8c-1.1,1.3-2.2,2.6-3.5,3.8
				c-1.2,1.2-2.5,2.5-3.9,3.8c-1.4,1.3-2.7,2.4-4,3.5c-1.3,1-2.5,2-3.8,2.8c-2.4,1.7-4.4,2.5-5.8,2.5c-0.6,0-1.3-0.2-2.2-0.6
				c-1.8-0.8-3.2-2.3-4.3-4.5c-1-2.2-1.8-4.5-2.2-6.9s-0.8-5.1-1.1-8.1c-3.6,6.7-8.2,12.6-13.9,17.8c-5.7,5.2-11.6,7.8-17.8,7.8
				c-1.7,0-3-0.9-3.9-2.7c-0.9-1.8-1.3-3.6-1.3-5.5c0-2.6,0.2-4.5,0.6-5.8c1.2-3.7,2.6-7.1,4.1-10.3c1.6-3.2,3.5-6.4,5.7-9.4
				c1.5-2,3.1-4,5-6c1.9-2,3.7-3.4,5.3-4.3c2.1-1.1,5-1.7,8.9-1.7c1.3,0,2.5,0.7,3.4,2.2c0.9,1.5,1.7,3.2,2.1,5.2
				c0.5,2.1,0.7,3.7,0.7,4.9c0.4-1.4,0.8-2.8,1.2-4.3c0.3-1.4,0.6-2.9,0.9-4.5c0.3-1.5,0.5-3.2,0.7-4.9c0.2-1.7,0.4-3.5,0.6-5.5
				c0.1-0.5,0.1-1.2,0.2-2c0.1-0.8,0.1-1.7,0.2-2.8c0.2-2.2,0.3-4.1,0.5-5.6c0.2-1.5,0.4-2.5,0.7-3c0.7-1.2,1.9-1.8,3.6-1.8
				c0.9,0,1.7,0.2,2.5,0.6c0.9,0.3,1.3,0.8,1.3,1.5c0,0.3-0.1,0.9-0.2,1.7c-0.1,0.8-0.3,1.8-0.5,3c-0.2,1.2-0.5,2.8-0.9,4.6
				c-0.4,1.8-0.8,4-1.3,6.5c0,0.3-0.1,0.9-0.3,1.7s-0.3,1.8-0.5,2.7c-0.2,1-0.3,1.8-0.5,2.7c-0.1,0.8-0.2,1.3-0.3,1.5
				c-0.4,2.3-0.7,4.5-0.9,6.5c-0.2,2-0.3,4.1-0.3,6.2c0,1.7,0,3.6,0.1,5.9c0.1,2.3,0.3,4.5,0.6,6.7c0.3,2.1,0.8,3.2,1.5,3.2
				c2.3,0,5.2-1.1,8.5-3.2c3.3-2.2,6.5-4.7,9.5-7.5c3.1-2.8,5.8-5.5,8.2-8c0.2-0.2,0.3-0.3,0.5-0.3c0.3,0,0.5,0.2,0.6,0.7
				C379.6,69.4,379.7,69.9,379.7,70.3z M339.7,73.1c-0.7-0.2-1.3-0.5-1.7-1.1s-0.6-1.2-0.6-1.9c0-0.6,0.1-1.4,0.3-2.5
				c0.2-1.1,0.3-2,0.3-2.6c0-0.5-0.1-1.1-0.4-1.7c-0.3-0.6-0.6-1.2-1.1-1.8c-0.4-0.6-0.9-1-1.4-1.4c-0.5-0.4-1.1-0.6-1.6-0.6
				c-1.5,0-3.6,1.6-6.2,4.8c-1.3,1.6-2.5,3.2-3.6,4.7c-1.1,1.5-2.1,3-3,4.4c-1,1.6-1.9,3-2.6,4.3c-0.7,1.3-1.3,2.5-1.8,3.5
				c-1.7,3.6-2.5,6.5-2.5,8.6c0,2.7,0.9,4,2.7,4c1.6,0,3.8-0.9,6.6-2.8c2.9-2,5.1-3.7,6.7-5.3c1.6-1.7,3-3.2,4.1-4.3
				c1.1-1.2,1.9-2.1,2.6-2.8s1.2-1.5,1.7-2.4C338.7,75.1,339.2,74.1,339.7,73.1z"/>
			<path class="st1" d="M405.5,67c-0.2,2-0.4,4.2-0.6,6.6c-0.1,2.4-0.3,5.1-0.6,8c-0.1,1.1-0.2,2.3-0.3,3.7s-0.3,2.8-0.5,4.2
				c-0.2,1.5-0.3,2.9-0.5,4.3c-0.2,1.4-0.3,2.7-0.5,3.8c-0.3,1.7-0.6,3.4-1,5.2c-0.4,1.8-0.9,3.6-1.5,5.3c-0.6,1.7-1.3,3.4-2.2,5
				c-0.9,1.6-1.9,3-3.1,4.1c-1.2,1.2-2.6,2.1-4.2,2.8s-3.4,1.1-5.4,1.1c-1.3,0-2.6-0.2-3.9-0.5c-1.3-0.3-2.6-0.7-3.9-1.3
				c-1.3-0.5-2.5-1.2-3.7-1.9c-1.2-0.7-2.3-1.5-3.3-2.3c-1.1-0.9-2.1-1.9-3-2.8c-0.9-1-1.6-1.9-2.1-2.9c-0.6-1-0.9-1.9-0.9-2.9
				c0-0.9,0.3-1.3,0.9-1.3c0.2,0,0.4,0.1,0.6,0.3c0.1,0.1,0.3,0.2,0.4,0.4c0.2,0.2,0.3,0.3,0.5,0.5c0.1,0.2,0.3,0.3,0.4,0.4
				c0.1,0.1,0.2,0.2,0.2,0.2c5.5,5.1,11.4,7.6,17.7,7.6c2.1,0,3.8-0.5,5.1-1.4c1.3-1,2.4-2.2,3.2-3.7c0.8-1.5,1.4-3.2,1.8-5.1
				c0.4-1.9,0.8-3.7,1.1-5.6c0.2-1.1,0.3-2.3,0.5-3.4c0.1-1.1,0.3-2.3,0.4-3.6c0.1-1.2,0.2-2.6,0.3-3.9c0.1-1.4,0.2-2.9,0.4-4.5
				c-1.2,1.3-2.7,2.6-4.4,4c-1.8,1.4-3.7,2.7-5.8,3.9c-2,1.2-4.1,2.2-6.2,3c-2.1,0.8-4,1.2-5.7,1.2c-0.7,0-1.4-0.2-2.1-0.5
				c-0.6-0.3-1.2-0.8-1.6-1.5c-0.5-0.6-0.8-1.4-1.1-2.4c-0.3-0.9-0.4-2-0.4-3.1c0-1.7,0.3-3.4,0.9-5.3s1.3-3.8,2.2-5.6
				c0.9-1.9,1.9-3.7,3-5.5c1.1-1.8,2.1-3.3,3.2-4.7c1-1.4,2.3-2.8,3.7-4.3c1.5-1.5,3-2.9,4.7-4.1c1.7-1.2,3.4-2.3,5.2-3.1
				c1.8-0.8,3.6-1.2,5.3-1.2c1.5,0,2.9,0.3,4.2,1c1.3,0.7,2.3,1.7,3,3c0.2,0.3,0.3,0.8,0.3,1.4s0,1.3,0,2.1s-0.1,1.6-0.3,2.5
				C405.7,65.2,405.6,66.1,405.5,67z M398.5,74.8c0.1-0.9,0.2-1.9,0.3-3.1c0.1-1.2,0.3-2.7,0.4-4.5c0.1-0.9,0.2-1.9,0.3-2.8
				c0.1-0.9,0.1-1.7-0.1-2.3c-0.2-0.8-0.7-1.4-1.3-1.6c-0.7-0.2-1.7-0.3-3.2-0.3c-1.4,0.9-2.7,1.9-4.1,3.2c-1.4,1.3-2.7,2.6-3.9,4.1
				c-1.2,1.5-2.4,3-3.5,4.5c-1.1,1.6-2,3.1-2.8,4.6c-0.9,1.6-1.6,3.3-2.1,4.9s-0.8,3-0.8,4.1c0,0.5,0.1,0.9,0.3,1.2
				c0.2,0.3,0.4,0.6,0.7,0.8c0.3,0.2,0.6,0.3,1,0.4s0.8,0.1,1.2,0.1c1,0,2.1-0.2,3.2-0.6c1.2-0.4,2.3-1,3.5-1.6
				c1.1-0.6,2.2-1.3,3.3-2s1.9-1.3,2.7-1.9c0.3-0.2,0.7-0.6,1.2-1.1s1-1.1,1.5-1.7s1-1.3,1.4-2C398.1,76.2,398.4,75.5,398.5,74.8z"
				/>
			<path class="st1" d="M469.5,70.3c0,0.4-0.3,1.2-0.9,2.3c-1.5,2.1-3.2,4.3-5,6.4c-1.8,2.1-3.8,4.2-5.9,6.1
				c-2.1,1.9-4.2,3.7-6.5,5.4s-4.5,3.1-6.8,4.3c-2.3,1.2-4.6,2.2-6.8,2.8s-4.5,1-6.6,0.9c-4.6,0-8.1-1.3-10.7-4
				c-2.5-2.7-3.8-6.7-3.8-12.1c0-4.5,0.7-8.9,2.1-13.1c1.4-4.2,3.8-8.3,7.1-12.2c0.6-0.7,1.3-1.3,2.1-2c0.8-0.6,1.6-1.2,2.5-1.7
				c0.9-0.5,1.8-0.9,2.7-1.2c0.9-0.3,1.9-0.5,2.8-0.5c0.2,0,0.5,0,0.9,0.1c0.4,0.1,0.8,0.2,1.3,0.3c0.5,0.1,0.9,0.3,1.3,0.5
				c0.4,0.2,0.8,0.5,1,0.8c0.8,0.9,1.4,1.9,1.9,2.8c0.5,1,0.7,2,0.8,3.2c0.1,1.3-0.1,2.6-0.5,3.9c-0.4,1.3-1,2.6-1.8,3.9
				c-0.8,1.3-2,2.7-3.3,4.1s-3,2.9-5,4.6c-1.2,1-2.6,2.2-4.1,3.4s-3.3,2.6-5.4,3.9c0,2.8,0.8,4.9,2.5,6.3c1.7,1.4,4,2.2,6.9,2.2
				c1.6,0,3.3-0.2,4.9-0.6c1.7-0.4,3.3-1,4.9-1.7c1.6-0.7,3.2-1.5,4.7-2.4s2.9-1.8,4.2-2.8c2.4-1.8,4.6-3.5,6.6-5.3
				c2-1.8,3.9-3.6,5.9-5.6l2.3-2.3c1.4-1.2,2.4-1.8,3-1.8C469.3,69.5,469.5,69.8,469.5,70.3z M436.7,61.8c0-0.4-0.1-0.9-0.2-1.3
				s-0.3-0.8-0.5-1.1c-0.2-0.3-0.4-0.6-0.7-0.8c-0.3-0.2-0.6-0.3-0.9-0.3c-1.5,0.1-3,1-4.5,2.8c-1.5,1.8-2.9,4.1-4.3,7
				c-0.3,0.6-0.6,1.3-0.8,2.1c-0.2,0.8-0.5,1.6-0.7,2.4s-0.4,1.6-0.6,2.4s-0.3,1.5-0.4,2.1c1.5-1.1,2.9-2.1,4.1-3.1s2.4-1.9,3.5-2.9
				c0.7-0.6,1.4-1.3,2.1-2c0.7-0.7,1.4-1.5,2-2.3c0.6-0.8,1.1-1.6,1.4-2.5C436.6,63.6,436.7,62.7,436.7,61.8z"/>
			<path class="st1" d="M508,62.2c0,1.1-0.3,1.9-0.9,2.4c-0.6,0.6-1.2,1.1-2,1.5c-0.9,0.4-2,0.8-3.2,1.2c-1.2,0.3-2.3,0.7-3.6,0.9
				c-1.2,0.3-2.4,0.5-3.7,0.7c-1.2,0.2-2.4,0.3-3.5,0.5c-1.2,0.1-2.5,0.2-3.8,0.3c-1.3,0.1-2.6,0.2-3.9,0.4
				c-1.3,0.1-2.4,0.3-3.5,0.5s-1.9,0.4-2.6,0.6c-0.6,2.6-1.2,5.1-1.9,7.4c-0.7,2.4-1.2,4.7-1.7,7.1c-0.1,0.5-0.3,1.4-0.5,2.4
				c-0.2,1.1-0.4,2.2-0.5,3.4c-0.2,1.2-0.3,2.3-0.5,3.3c-0.1,1-0.2,1.8-0.2,2.3c0,1.2,0.2,2.1,0.6,2.6s0.8,1.1,1.2,1.4
				c0.4,0.4,0.9,0.7,1.2,1s0.6,0.8,0.6,1.4c0,0.4-0.2,0.8-0.6,1.2c-0.4,0.4-0.9,0.7-1.4,1c-0.5,0.3-1.1,0.5-1.7,0.7
				c-0.6,0.2-1.2,0.2-1.6,0.2c-0.8,0-1.6-0.2-2.2-0.7s-1.2-1.1-1.7-1.8c-0.5-0.7-0.8-1.6-1.1-2.5c-0.3-0.9-0.4-1.9-0.4-2.9
				c0-1.3,0.1-2.7,0.3-4.2c0.2-1.5,0.5-3,0.9-4.6c0.3-1.6,0.7-3.2,1.1-4.8c0.4-1.6,0.8-3.3,1.1-4.9c0.1-0.7,0.3-1.4,0.5-2.1
				s0.3-1.4,0.4-2.1c0.1-0.6,0.2-1.2,0.3-1.6c0.1-0.4,0.1-0.7,0.1-0.8c0-0.5-0.2-0.8-0.5-1.1c-0.3-0.2-0.7-0.4-1.2-0.4
				c-0.3,0-0.9,0-1.5,0.1s-1.4,0.1-2.2,0.2c-0.8,0.1-1.5,0.2-2.2,0.2c-0.7,0.1-1.2,0.1-1.5,0.1c-1,0-1.9-0.1-2.6-0.2
				c-0.7-0.1-1.3-0.4-1.7-0.7c-0.4-0.3-0.8-0.8-1-1.4c-0.2-0.6-0.3-1.4-0.3-2.4c0-0.4,0.2-0.7,0.6-0.9c0.4-0.2,0.8-0.4,1.4-0.5
				c0.5-0.1,1.1-0.2,1.7-0.2c0.6,0,1.1,0,1.6,0c0.4,0,1,0,1.8-0.1c0.8-0.1,1.7-0.2,2.7-0.2c0.9-0.1,1.8-0.2,2.7-0.2s1.5-0.1,1.8-0.1
				c0.2,0,0.4,0,0.6,0c0.2,0,0.5-0.1,0.7-0.2s0.5-0.3,0.7-0.6c0.2-0.3,0.4-0.7,0.5-1.3c0.2-0.9,0.4-1.9,0.7-3.1
				c0.3-1.2,0.6-2.4,0.9-3.6c0.3-1.2,0.6-2.4,0.9-3.6c0.3-1.2,0.5-2.2,0.7-3c0.3-0.8,0.5-1.7,0.7-2.6c0.2-0.9,0.4-1.8,0.5-2.7
				s0.3-1.8,0.5-2.7s0.5-1.6,0.8-2.4c0.6-1.5,1.6-2.2,3-2.2c2.1,0,3.2,1.2,3.2,3.5c0,1.5-0.3,3.1-0.9,5c-1.4,4.3-2.4,7.9-3,10.8
				c-0.7,2.8-1,4.7-1,5.7c0,1.1,0.5,1.6,1.6,1.6c1.3,0,2.5,0,3.6-0.1c1.1,0,2.3-0.1,3.4-0.2c1.2-0.1,2.4-0.2,3.7-0.4
				s2.7-0.3,4.3-0.5c1.1-0.1,2.2-0.3,3.3-0.5c1-0.2,2-0.4,2.9-0.6c0.9-0.2,1.7-0.4,2.4-0.5c0.7-0.2,1.3-0.3,1.7-0.3
				c0.3,0,0.6-0.1,0.9-0.1c0.3-0.1,0.6-0.1,0.8,0s0.4,0.2,0.5,0.3C507.9,61.4,508,61.7,508,62.2z"/>
		</g>
		<g class="st0">
			<path class="st2" d="M601.3,38.9c0,0.3-0.1,0.6-0.2,0.9c-0.1,0.4-0.3,0.8-0.5,1.1c-0.2,0.4-0.4,0.7-0.6,1.1
				c-0.2,0.3-0.5,0.6-0.8,0.7c-0.8,0.4-1.5,0.7-2.2,0.8c-0.6,0.2-1.4,0.4-2.3,0.5c-2.7,0.5-5.4,1-8,1.3c-2.6,0.4-5,0.6-7.3,0.9
				s-4.4,0.4-6.3,0.5s-3.5,0.1-4.9,0.1c-0.7,0-1.4,0-2,0s-1.1,0-1.6,0c-0.5,0-1,0-1.5,0c-0.5,0-1,0-1.5,0c-1.3,0-2.4,0-3.3,0
				c-0.9,0-1.7-0.1-2.4-0.1c-0.4,1-0.7,2.2-0.9,3.7c-0.2,1.5-0.3,3-0.4,4.5s-0.2,3.1-0.2,4.6s-0.1,2.8-0.3,3.9
				c0.6,0.4,1.1,0.7,1.5,0.9c0.4,0.2,0.8,0.4,1.2,0.5c0.4,0.1,0.9,0.2,1.3,0.2c0.5,0,1,0,1.7,0c0.7,0,1.5,0,2.4,0s1.7,0,2.6-0.1
				c0.9,0,1.7-0.1,2.6-0.2c0.8-0.1,1.6-0.2,2.2-0.4c1.1-0.3,2.1-0.4,3-0.5c0.9,0,1.7,0,2.5,0s1.6,0,2.5-0.2c0.8-0.1,1.8-0.3,2.8-0.8
				c0.7-0.3,1.4-0.6,2-0.8c0.6-0.3,1.2-0.5,1.7-0.6s1.1-0.3,1.6-0.4s1-0.2,1.6-0.2c0.5,0,0.8,0.2,1.2,0.5c0.3,0.3,0.6,0.7,0.7,1.2
				s0.3,1.1,0.4,1.7s0.1,1.2,0.1,1.8c0,0.6-0.2,1.2-0.7,1.6c-0.5,0.4-1,0.8-1.6,1.1s-1.2,0.5-1.9,0.7c-0.6,0.2-1.1,0.3-1.5,0.4
				c-0.7,0.1-1.5,0.3-2.6,0.3c-1.1,0.1-2.2,0.2-3.4,0.2s-2.3,0.1-3.4,0.2c-1.1,0-2,0.1-2.7,0.2c-2,0.2-4,0.4-6.2,0.5
				s-4.3,0.1-6.5,0.1c-1.1,0-2.1,0.1-2.9,0.2c-0.8,0.1-1.7,0.4-2.6,0.6c-0.2,0.1-0.4,0.4-0.6,1.1c-0.2,0.7-0.5,1.6-0.7,2.6
				c-0.3,1.1-0.5,2.2-0.8,3.5c-0.3,1.3-0.5,2.5-0.8,3.6c-0.4,1.7-0.7,3.3-0.9,4.8c-0.2,1.4-0.3,2.4-0.4,3c0.2,0.2,0.4,0.4,0.6,0.6
				s0.5,0.3,0.9,0.3c0.7,0,1.6,0,2.7,0c1,0,2.1,0,3.2-0.1c1.1,0,2.2-0.1,3.3-0.1c1.1,0,2-0.1,2.7-0.2c1.9-0.2,3.9-0.4,5.9-0.5
				c2.1-0.2,4.1-0.4,6-0.6c1.9-0.2,3.8-0.5,5.5-0.8c1.7-0.3,3.2-0.6,4.5-0.9c0,0,0.2-0.1,0.6-0.2c0.4-0.1,1-0.3,1.6-0.5
				c0.7-0.2,1.4-0.4,2.1-0.6s1.5-0.4,2.1-0.6c0.7-0.2,1.2-0.3,1.7-0.5c0.4-0.1,0.7-0.2,0.6-0.2c0.4,0,0.8,0.1,1.2,0.3
				c0.4,0.2,0.8,0.5,1.1,0.9c0.3,0.4,0.6,0.8,0.8,1.4c0.2,0.5,0.3,1.1,0.3,1.7c0,0.2-0.1,0.6-0.3,1s-0.5,0.8-0.9,1.3
				c-0.4,0.4-0.9,0.8-1.4,1.2s-1.1,0.6-1.7,0.7c-1.4,0.3-2.8,0.5-4.1,0.7c-1.3,0.2-2.6,0.4-3.9,0.6c-1.3,0.2-2.7,0.3-4.2,0.5
				c-1.5,0.2-3.1,0.3-5,0.5c-2.2,0.2-4.4,0.5-6.6,0.7c-2.2,0.2-4.3,0.5-6.2,0.8c-1.9,0.3-3.6,0.5-5.1,0.7s-2.6,0.4-3.3,0.5
				c-0.7,0.1-1.4,0.3-2.2,0.5c-0.8,0.2-1.6,0.4-2.4,0.6c-0.8,0.2-1.5,0.4-2.2,0.5c-0.7,0.2-1.2,0.2-1.7,0.2c-0.8,0-1.5-0.1-2.1-0.3
				c-0.6-0.2-1.1-0.6-1.5-1.1c-0.4-0.5-0.7-1.3-0.9-2.2c-0.2-0.9-0.3-2.1-0.3-3.5c0-1.2,0.2-2.6,0.5-4.1c0.3-1.5,0.8-3.3,1.2-5.5
				c0.3-1.8,0.7-3.5,1.1-5.3s0.8-3.5,1.1-5.3c0.4-1.8,0.7-3.5,0.9-5.3c0.2-1.8,0.4-3.5,0.4-5.3c0-1.3,0.1-2.6,0.3-3.9
				c0.2-1.3,0.3-2.6,0.5-4s0.3-2.7,0.4-4c0.1-1.3,0.2-2.7,0.2-3.9c0-0.2,0-0.5-0.1-0.9c-0.1-0.4-0.1-0.7-0.1-0.9
				c0-1.2,0.4-2.6,1.3-4.1c0.2-0.4,0.6-0.8,1.1-1.2s1.1-0.8,1.8-1.1c0.6-0.3,1.3-0.6,1.9-0.8c0.6-0.2,1.2-0.3,1.6-0.3
				c0.3,0,0.8,0.1,1.5,0.2c0.7,0.1,1.4,0.3,2.2,0.4s1.5,0.3,2.2,0.4c0.7,0.1,1.2,0.2,1.5,0.2c0.5,0,1.1,0,2,0c0.8,0,1.7,0,2.7,0
				c1,0,2,0,3,0s2.1,0,3-0.1c2.2-0.1,4.2-0.2,6.2-0.4c2-0.1,4-0.4,6.2-0.8c1.3-0.2,2.5-0.5,3.6-0.8c1.1-0.3,2.1-0.7,3.1-1
				c1-0.3,2-0.6,3-0.8c1-0.2,2-0.3,3-0.3c0.4,0,0.7,0.1,1.1,0.3c0.4,0.2,0.7,0.4,1,0.7c0.3,0.3,0.5,0.7,0.7,1.1
				C601.2,38.1,601.3,38.5,601.3,38.9z"/>
			<path class="st2" d="M648.2,65.3c0,0.2,0,0.4,0,0.8c0,0.3-0.1,0.7-0.2,1c-0.1,0.3-0.3,0.6-0.4,0.9s-0.4,0.4-0.6,0.4
				c-0.2,0-0.5,0-0.9,0c-0.4,0-0.8,0-1.3-0.1c-0.4,0-0.9,0-1.3-0.1s-0.7,0-0.9,0c-5.5,0.3-10,2.3-13.6,6c-3.6,3.6-6.7,8.4-9.3,14.3
				c-0.5,1.2-1,2.5-1.4,3.8c-0.5,1.3-0.9,2.7-1.4,4.2c-0.2,0.8-0.4,1.5-0.5,2.1c-0.1,0.6-0.3,1.3-0.5,2c-0.1,0.2-0.3,0.5-0.7,0.7
				c-0.4,0.2-0.9,0.4-1.4,0.6c-0.5,0.2-1,0.3-1.5,0.4s-0.8,0.2-1,0.2c-2,0.1-3.1-1.9-3.3-6.1c-0.1-1.1-0.1-2.2-0.1-3.1
				c0-0.9,0-1.8,0.1-2.7c0.1-0.9,0.1-1.8,0.2-2.7c0.1-1,0.2-2,0.3-3.2c0.1-1.5,0.3-3.2,0.5-5.2c0.2-1.9,0.4-3.9,0.7-5.9
				c0.3-2,0.5-3.9,0.8-5.6c0.3-1.8,0.6-3.3,0.9-4.4c0.3-1.3,0.8-2.3,1.3-3c0.6-0.7,1.4-1,2.5-1.1c0.3,0,0.6,0.1,0.9,0.2
				s0.6,0.4,0.9,0.6c0.3,0.3,0.5,0.5,0.7,0.8c0.2,0.3,0.3,0.5,0.3,0.8c0,0.7,0,1.5,0,2.3c-0.1,0.8-0.2,1.7-0.3,2.6
				c-0.1,0.9-0.3,1.8-0.5,2.7c-0.2,0.9-0.4,1.8-0.6,2.6c-0.4,1.6-0.7,3-0.9,4.2c-0.2,1.2-0.4,2.3-0.5,3.4c-0.1,1.1-0.3,2.3-0.4,3.5
				c-0.1,1.2-0.3,2.8-0.6,4.6c0.5-1.1,0.9-2,1.3-2.8s0.7-1.5,1-2c0.3-0.6,0.6-1.1,0.8-1.6c0.2-0.5,0.5-0.9,0.8-1.4
				c0.3-0.5,0.6-1.1,0.9-1.7c0.3-0.6,0.8-1.3,1.3-2.2c2-3.3,4.1-6,6.4-8.1c2.3-2.1,4.5-3.6,6.6-4.5c2.4-1.1,4.4-1.8,5.9-1.8
				c0.7,0,1.6,0,2.7,0.1c1,0.1,2,0.3,3,0.6c0.9,0.3,1.8,0.7,2.4,1.2C647.9,64,648.2,64.6,648.2,65.3z"/>
			<path class="st2" d="M715.6,70.7c0,0.3,0,0.8-0.1,1.2c-0.1,0.5-0.2,1-0.4,1.4c-0.2,0.5-0.3,1-0.5,1.4c-0.2,0.4-0.4,0.8-0.6,1.1
				c-0.2,0.2-0.4,0.5-0.8,0.9c-0.3,0.4-0.7,0.8-1.1,1.3c-0.4,0.5-0.8,0.9-1.3,1.4c-0.5,0.5-1,1-1.5,1.4c-1.8,1.6-3.5,3.2-5.2,4.7
				c-1.7,1.5-3.5,2.9-5.3,4.1c-1.8,1.2-3.7,2.1-5.6,2.8c-2,0.7-4.1,1-6.4,1c-1.1,0-2.1-0.2-3.2-0.6c-1.1-0.4-2.1-0.9-3-1.7
				c-0.9-0.7-1.8-1.6-2.4-2.6c-0.7-1-1.2-2.1-1.5-3.3c-0.8,0.9-1.7,1.8-2.6,2.7c-0.9,0.9-1.9,1.9-2.9,2.8c-1,0.9-2,1.9-3.1,2.7
				c-1.1,0.9-2.1,1.7-3.3,2.4c-0.6,0.4-1.4,0.8-2.3,1.3c-0.9,0.5-1.8,0.9-2.7,1.3c-1,0.4-1.9,0.7-2.9,0.9c-1,0.2-1.8,0.4-2.6,0.4
				c-1.2,0-2.2-0.4-3-1.1s-1.5-1.6-2.1-2.7s-1-2.2-1.2-3.4c-0.3-1.2-0.4-2.3-0.4-3.2c0-1.9,0.3-3.8,0.8-5.8c0.5-2,1.3-3.9,2.1-5.8
				c0.9-1.9,1.8-3.7,2.9-5.3c1.1-1.7,2.1-3.2,3.2-4.5c1.1-1.4,2.4-2.7,3.9-4.1c1.5-1.4,3-2.6,4.6-3.6c1.6-1.1,3.2-1.9,4.7-2.6
				s2.9-1,4.1-1c0.6,0,1.2,0,1.9,0c0.7,0,1.3,0,2,0.1c0.7,0.1,1.3,0.2,1.9,0.3c0.6,0.2,1.2,0.4,1.7,0.7c0.3,0.2,0.6,0.5,0.9,1
				c0.3,0.5,0.7,1,1,1.6c0.3,0.6,0.6,1.2,0.8,1.8s0.3,1.1,0.3,1.4c0,0.9-0.2,2.2-0.6,3.8c-0.5,2-0.9,3.8-1.3,5.4
				c-0.4,1.6-0.6,3.3-0.6,5c0,1,0.2,2,0.5,3c0.3,1,0.8,1.9,1.4,2.8c0.6,0.8,1.3,1.5,2.1,2c0.8,0.5,1.8,0.8,2.9,0.8
				c1.7,0,3.5-0.4,5.4-1.1c1.8-0.7,3.7-1.7,5.6-3c1.9-1.3,3.7-2.7,5.6-4.4c1.9-1.7,3.7-3.5,5.5-5.3c0.1-0.2,0.4-0.5,0.8-0.9
				c0.4-0.4,0.7-0.8,1.1-1.2c0.4-0.4,0.8-0.8,1.1-1.1c0.4-0.3,0.6-0.5,0.8-0.5C715.3,69,715.6,69.6,715.6,70.7z M677.4,67.2
				c0-0.5,0-1.1-0.1-1.8c-0.1-0.7-0.2-1.3-0.6-1.8c-0.3-0.5-0.7-0.7-1.2-0.7c-0.5,0-0.9,0-1.4,0c-1,0-2,0.2-2.9,0.5
				c-0.9,0.3-1.8,0.8-2.7,1.3s-1.7,1.2-2.6,1.9c-0.8,0.7-1.6,1.5-2.4,2.3c-0.7,0.7-1.4,1.5-2.1,2.4s-1.4,2-2.1,3.2
				c-0.7,1.2-1.4,2.4-2,3.6c-0.7,1.3-1.2,2.5-1.7,3.8c-0.5,1.2-0.9,2.4-1.2,3.6c-0.3,1.2-0.4,2.2-0.4,3.2c0,0.3,0,0.7,0.1,1.1
				c0.1,0.5,0.2,0.9,0.3,1.4c0.2,0.4,0.4,0.8,0.6,1.1c0.3,0.3,0.6,0.5,1,0.5c1.3,0,3-0.4,4.9-1.2c2.7-1.1,5.1-2.7,7.3-4.7
				c2.2-2,4.1-4.3,5.6-6.9C676.3,76.1,677.4,71.8,677.4,67.2z"/>
		</g>
		<path class="st2" d="M99.2,66v29.2h27c0,0-7.8,39.9-48.5,34.2c0,0-47.6-4.5-45.3-52.1c0,0,0-41.9,45.3-46.4c0,0,15.9,0,19.3,3.4
			V2.6c0,0-56.1-19.8-92.3,50.4c0,0-20.4,52.1,24.9,90.6c0,0,41.9,35.1,94,6.8c0,0,38.5-23.8,38.5-60.1V66.3L99.2,66z"/>
		<circle class="st1" cx="83.3" cy="80.8" r="23.9"/>
		<path class="st2" d="M369.1,215c0,0,276.9-136,442.9-65.3C753.3,139.1,608.1,114.5,369.1,215z"/>
	</g>
</g>
</svg>
